/* XPM */
static char *xpm_[] = {
/* columns rows colors chars-per-pixel */
"120 87 70 1 ",
"  c gray9",
". c #181818",
"X c #191919",
"o c #1E1E1E",
"O c #232323",
"+ c #252525",
"@ c gray18",
"# c gray22",
"$ c #484848",
"% c #4E4C4C",
"& c #4F4D4D",
"* c gray31",
"= c #535151",
"- c #535353",
"; c #595757",
": c #5B5A5A",
"> c #686767",
", c #6E6D6D",
"< c #6F6E6E",
"1 c #706F6F",
"2 c #716F6F",
"3 c #717070",
"4 c #727272",
"5 c #757373",
"6 c #757474",
"7 c #777676",
"8 c #828181",
"9 c #848383",
"0 c #878686",
"q c #8B8B8B",
"w c gray56",
"e c #949292",
"r c #959393",
"t c #969494",
"y c #9A9797",
"u c #9B9999",
"i c #9B9B9B",
"p c #9D9C9C",
"a c #A3A0A0",
"s c #A2A2A2",
"d c #A6A5A5",
"f c #A7A7A7",
"g c #A8A7A7",
"h c gray66",
"j c gray67",
"k c #AFAEAE",
"l c #B0AFAF",
"z c gray70",
"x c #B7B7B7",
"c c #C1BFBF",
"v c gray76",
"b c #C5C5C5",
"n c #CBCBCB",
"m c #CDCDCD",
"M c #CECECE",
"N c #D0D0D0",
"B c gray82",
"V c LightGray",
"C c gray83",
"Z c #D5D5D5",
"A c gray84",
"S c #D7D7D7",
"D c #DADADA",
"F c gainsboro",
"G c #E2E2E2",
"H c #E4E4E4",
"J c #EFEFEF",
"K c #F9F9F9",
"L c gray98",
"P c white",
/* pixels */
"PPPPPPPPPPPPPPPPPPPPPPPPPPPPPPPPPPPPPPPPPPPPPPPPPPPPPPPPPPPPPPPPPPPPPPPPPPPPPPPPPPPPPPPPPPPPPPPPPPPPPPPPPPPPPPPPPPPPPPPP",
"PPPPPPPPPPPPPPPPPPPPPPPPPPPPPPPPPPPPPPPPPPPPPPPPPPPPPPPPPPPPPPPPPPPPPPPPPPPPPPPPPPPPPPPPPPPPPPPPPPPPPPPPPPPPPPPPPPPPPPPP",
"PPPPPPPPPPPPPPPPPPPPPPPPPPPPPPPPPPPPPPPPPPPPPPPPPPPPPPPPPPPPPPPPPPPPPPPPPPPPPPPPPPPPPPPPPPPPPPPPPPPPPPPPPPPPPPPPPPPPPPPP",
"PPPPPPPPPPPPPPPPPPPPPPPPPPPPPPPPPPPPPPPPPPPPPPPPPPPPPPPPPPPPPPPPPPPPPPPPPPPPPPPPPPPPPPPPPPPPPPPPPPPPPPPPPPPPPPPPPPPPPPPP",
"PPPPPPPPPPPPPPPPPPPPPPPPPPPPPPPPPPPPPPPPPPPPPPPPPPPPPPPPPPPPPPPPPPPPPPPPPPPPPPPPPPPPPPPPPPPPPPPPPPPPPPPPPPPPPPPPPPPPPPPP",
"PPPPHGGGGGGGGGGGGGGGGGGGGGGGGGGGGGGGGGGGGGGGGGGGGGGGGGGGGGGGGGGGGGGGGGGGGGGGGGGGGGGGGGGGGGGGGGGGGGGGGGGGGGGGGGGGGGKPPPPP",
"PPPPDSSSSSSSSSSSSSSSSSSSSSSSSSSSSSSSSSSSSSSSSSSSSSSSSSSSSSSSSSSSSSSSSSSSSSSSSSSSSSSSSSSSSSSSSSSSSSSSSSSSSSSSSSSSSSKPPPPP",
"PPPPDSM5&:jSSz7<wVSSgeivSSSSSSSSSSSSSSSSSSSSSSSSSSSSSSSSSSSSSSSSSSSSSSSSSSSSSSSSSSSSSSSSSSSSSSSSSSSSSSSSSSSSSSSSSSKPPPPP",
"PPPPDS9&&&=Mn3<<<pSleeetVSSSSSSSSSSSSSSSSSSSSSSSSSSSSSSSSSSSSSSSSSSSSSSSSSSSSSSSSSSSSSSSSSSSSSSSSSSSSSSSSSSSSSSSSSKPPPPP",
"PPPPDS>&&&&zx<<<<0SseeeebSSSSSSSSSSSSSSSSSSSSSSSSSSSSSSSSSSSSSSSSSSSSSSSSSSSSSSSSSSSSSSSSSSSSSSSSSSSSSSSSSSSSSSSSSKPPPPP",
"PPPPDS8&&&=nn1<<<iSkeeetVSSSSSSSSSSSSSSSSSSSSSSSSSSSSSSSSSSSSSSSSSSSSSSSSSSSSSSSSSSSSSSSSSSSSSSSSSSSSSSSSSSSSSSSSSKPPPPP",
"PPPPDSM1&;fSSl7<qVSVfeycSSSSSSSSSSSSSSSSSSSSSSSSSSSSSSSSSSSSSSSSSSSSSSSSSSSSSSSSSSSSSSSSSSSSSSSSSSSSSSSSSSSSSSSSSSKPPPPP",
"PPPPDSSSVSSSSSSSSSSSSSSSSSSSSSSSSSSSSSSSSSSSSSSSSSSSSSSSSSSSSSSSSSSSSSSSSSSSSSSSSSSSSSSSSSSSSSSSSSSSSSSSSSSSSSSSSSKPPPPP",
"PPPPjsssssssssssssssssssssssssssssssssssssssssssssssssssssssssssssssssssssssssssssssssssssssssssssssssssssssssssssJPPPPP",
"PPPPO                                                                                                             VPPPPP",
"PPPPO                                                                                                             VPPPPP",
"PPPPO                                                                                                             VPPPPP",
"PPPPO                                                                                                             VPPPPP",
"PPPPO                                                                                                             VPPPPP",
"PPPPO                                                                                                             VPPPPP",
"PPPPO    +#############.                                                                                          VPPPPP",
"PPPPO    3PPPPPPPPPPPPPo                                                                                          VPPPPP",
"PPPPO    3PPPPPPPPPPPPPo                                                                                          VPPPPP",
"PPPPO    3PPPPPPPPPPPPPo                                                                                          VPPPPP",
"PPPPO    3PPPPPPPPPPPPPo                                                                                          VPPPPP",
"PPPPO    3PPPPPPPPPPPPPo                                                                                          VPPPPP",
"PPPPO    3PPPPPPPPPPPPPo                                                                                          VPPPPP",
"PPPPO    3PPPPPPPPPPPPPo                                                                                          VPPPPP",
"PPPPO    3PPPPPPPPPPPPPo                                                                                          VPPPPP",
"PPPPO    3PPPPPPPPPPPPPo                                                                                          VPPPPP",
"PPPPO    3PPPPPPPPPPPPPo                                                                                          VPPPPP",
"PPPPO    3PPPPPPPPPPPPPo                                                                                          VPPPPP",
"PPPPO    3PPPPPPPPPPPPPo                                                                                          VPPPPP",
"PPPPO    3PPPPPPPPPPPPPo                                                                                          VPPPPP",
"PPPPO    3PPPPPPPPPPPPPo                                                                                          VPPPPP",
"PPPPO    3PPPPPPPPPPPPPo                                                                                          VPPPPP",
"PPPPO    3PPPPPPPPPPPPPo                                                                                          VPPPPP",
"PPPPO    3PPPPPPPPPPPPPo                                                                                          VPPPPP",
"PPPPO    3PPPPPPPPPPPPPo                                                                                          VPPPPP",
"PPPPO    3PPPPPPPPPPPPPo                                                                                          VPPPPP",
"PPPPO    3PPPPPPPPPPPPPo                                                                                          VPPPPP",
"PPPPO    3PPPPPPPPPPPPPo                                                                                          VPPPPP",
"PPPPO    3PPPPPPPPPPPPPo                                                                                          VPPPPP",
"PPPPO    3PPPPPPPPPPPPPo                                                                                          VPPPPP",
"PPPPO    3PPPPPPPPPPPPPo                                                                                          VPPPPP",
"PPPPO    3PPPPPPPPPPPPPo                                                                                          VPPPPP",
"PPPPO    @&&&&&&&&&&&&&.                                                                                          VPPPPP",
"PPPPO                                                                                                             VPPPPP",
"PPPPO                                                                                                             MPPPPP",
"PPPPO                                                                                                             VPPPPP",
"PPPPO                                                                                                             VPPPPP",
"PPPPO                                                                                                             VPPPPP",
"PPPPO                                                                                                             VPPPPP",
"PPPPO                                                                                                             VPPPPP",
"PPPPO                                                                                                             VPPPPP",
"PPPPO                                                                                                             VPPPPP",
"PPPPO                                                                                                             MPPPPP",
"PPPPO                                                                                                             VPPPPP",
"PPPPO                                                                                                             VPPPPP",
"PPPPO                                                                                                             VPPPPP",
"PPPPO                                                                                                             VPPPPP",
"PPPPO                                                                                                             VPPPPP",
"PPPPO                                                                                                             VPPPPP",
"PPPPO                                                                                                             VPPPPP",
"PPPPO                                                                                                             VPPPPP",
"PPPPO                                                                                                             VPPPPP",
"PPPPO                                                                                                             VPPPPP",
"PPPPO                                                                                                             VPPPPP",
"PPPPO                                                                                                             VPPPPP",
"PPPPO                                                                                                             VPPPPP",
"PPPPO                                                                                                             VPPPPP",
"PPPPO                                                                                                             VPPPPP",
"PPPPO                                                                                                             VPPPPP",
"PPPPO                                                                                                             VPPPPP",
"PPPPO                                                                                                             VPPPPP",
"PPPPO                                                                                                             VPPPPP",
"PPPPO                                                                                                             VPPPPP",
"PPPPO                                                                                                             VPPPPP",
"PPPPO                                                                                                             VPPPPP",
"PPPPO                                                                                                             VPPPPP",
"PPPPO                                                                                                             VPPPPP",
"PPPP=$$$$$$$$$$$$$$$$$$$$$$$$$$$$$$$$$$$$$$$$$$$$$$$$$$$$$$$$$$$$$$$$$$$$$$$$$$$$$$$$$$$$$$$$$$$$$$$$$$$$$$$$$$$$$FPPPPP",
"PPPPPPPPPPPPPPPPPPPPPPPPPPPPPPPPPPPPPPPPPPPPPPPPPPPPPPPPPPPPPPPPPPPPPPPPPPPPPPPPPPPPPPPPPPPPPPPPPPPPPPPPPPPPPPPPPPPPPPPP",
"PPPPPPPPPPPPPPPPPPPPPPPPPPPPPPPPPPPPPPPPPPPPPPPPPPPPPPPPPPPPPPPPPPPPPPPPPPPPPPPPPPPPPPPPPPPPPPPPPPPPPPPPPPPPPPPPPPPPPPPP",
"PPPPPPPPPPPPPPPPPPPPPPPPPPPPPPPPPPPPPPPPPPPPPPPPPPPPPPPPPPPPPPPPPPPPPPPPPPPPPPPPPPPPPPPPPPPPPPPPPPPPPPPPPPPPPPPPPPPPPPPP",
"PPPPPPPPPPPPPPPPPPPPPPPPPPPPPPPPPPPPPPPPPPPPPPPPPPPPPPPPPPPPPPPPPPPPPPPPPPPPPPPPPPPPPPPPPPPPPPPPPPPPPPPPPPPPPPPPPPPPPPPP",
"PPPPPPPPPPPPPPPPPPPPPPPPPPPPPPPPPPPPPPPPPPPPPPPPPPPPPPPPPPPPPPPPPPPPPPPPPPPPPPPPPPPPPPPPPPPPPPPPPPPPPPPPPPPPPPPPPPPPPPPP"
};
